<?xml version="1.0" encoding="utf-8"?>
<!-- Generator: Adobe Illustrator 21.0.2, SVG Export Plug-In . SVG Version: 6.00 Build 0)  -->
<svg version="1.1" id="Paso2" xmlns="http://www.w3.org/2000/svg" xmlns:xlink="http://www.w3.org/1999/xlink" x="0px" y="0px"
	 viewBox="0 0 709 617" style="enable-background:new 0 0 709 617;" xml:space="preserve">
<style type="text/css">
	.st0{clip-path:url(#SVGID_2_);}
	.st1{clip-path:url(#SVGID_4_);}
	.st2{font-family:'Poppins-Black';}
	.st3{font-size:29.0874px;}
	
		.st4{clip-path:url(#SVGID_6_);fill:none;stroke:#000000;stroke-width:6;stroke-linecap:round;stroke-linejoin:round;stroke-miterlimit:10;}
	
		.st5{clip-path:url(#SVGID_2_);fill:none;stroke:#000000;stroke-width:6;stroke-linecap:round;stroke-linejoin:round;stroke-miterlimit:10;}
	
		.st6{clip-path:url(#SVGID_8_);fill:none;stroke:#000000;stroke-width:6;stroke-linecap:round;stroke-linejoin:round;stroke-miterlimit:10;}
	.st7{fill:#FCFCFC;}
	.st8{clip-path:url(#SVGID_10_);}
	.st9{clip-path:url(#SVGID_12_);}
	
		.st10{clip-path:url(#SVGID_14_);fill:none;stroke:#000000;stroke-width:6;stroke-linecap:round;stroke-linejoin:round;stroke-miterlimit:10;}
	
		.st11{clip-path:url(#SVGID_10_);fill:none;stroke:#000000;stroke-width:6;stroke-linecap:round;stroke-linejoin:round;stroke-miterlimit:10;}
	
		.st12{clip-path:url(#SVGID_16_);fill:none;stroke:#000000;stroke-width:6;stroke-linecap:round;stroke-linejoin:round;stroke-miterlimit:10;}
	.st13{clip-path:url(#SVGID_18_);}
	.st14{clip-path:url(#SVGID_20_);}
	.st15{font-size:25.2681px;}
	
		.st16{clip-path:url(#SVGID_22_);fill:none;stroke:#000000;stroke-width:6;stroke-linecap:round;stroke-linejoin:round;stroke-miterlimit:10;}
	
		.st17{clip-path:url(#SVGID_18_);fill:none;stroke:#000000;stroke-width:6;stroke-linecap:round;stroke-linejoin:round;stroke-miterlimit:10;}
	
		.st18{clip-path:url(#SVGID_24_);fill:none;stroke:#000000;stroke-width:6;stroke-linecap:round;stroke-linejoin:round;stroke-miterlimit:10;}
</style>
<g>
	<g>
		<path d="M300.9,565.1H21.7c-0.2,0-0.3-0.1-0.4-0.2L5,543.3c-0.1-0.1-0.1-0.2-0.1-0.3l0-409.4c0-0.1,0.1-0.3,0.1-0.4
			s0.2-0.1,0.4-0.1h295.5c0.3,0,0.5,0.2,0.5,0.5v431C301.4,564.8,301.1,565.1,300.9,565.1z M21.9,564.1h278.4v-430H5.9l0,408.8
			L21.9,564.1z"/>
	</g>
	<g>
		<path d="M21.7,565.1c-0.1,0-0.3-0.1-0.4-0.2l-0.1-0.1L5,543.3c-0.1-0.2-0.1-0.4,0-0.6s0.3-0.3,0.5-0.2l21.2,2.8
			c0.1,0,0.3,0.1,0.3,0.2c0.1,0.1,0.1,0.3,0.1,0.4l-4.8,18.8c0,0.2-0.2,0.4-0.3,0.4C21.9,565.1,21.8,565.1,21.7,565.1z M6.5,543.7
			l15,19.8l4.4-17.3L6.5,543.7z"/>
	</g>
	<g>
		<g>
			<defs>
				
					<rect id="SVGID_1_" x="47.6" y="302.2" transform="matrix(1 -1.073697e-03 1.073697e-03 1 -0.3743 0.1619)" width="205.9" height="93"/>
			</defs>
			<clipPath id="SVGID_2_">
				<use xlink:href="#SVGID_1_"  style="overflow:visible;"/>
			</clipPath>
			<g class="st0">
				<defs>
					
						<rect id="SVGID_3_" x="47.6" y="302.2" transform="matrix(1 -1.073697e-03 1.073697e-03 1 -0.3743 0.1619)" width="205.9" height="93"/>
				</defs>
				<clipPath id="SVGID_4_">
					<use xlink:href="#SVGID_3_"  style="overflow:visible;"/>
				</clipPath>
				<g class="st1">
					<text transform="matrix(1 -1.073697e-03 1.073697e-03 1 126.5146 325.8383)" class="st2 st3">The</text>
				</g>
			</g>
			<g class="st0">
				<text transform="matrix(1 -1.073697e-03 1.073697e-03 1 126.5415 350.9594)" class="st2 st3">New Old</text>
			</g>
			<g class="st0">
				<text transform="matrix(1 -1.073697e-03 1.073697e-03 1 126.5685 376.0912)" class="st2 st3">Galle</text>
			</g>
			<g class="st0">
				<text transform="matrix(1 -1.073697e-03 1.073697e-03 1 204.8717 376.0071)" class="st2 st3">r</text>
			</g>
			<g class="st0">
				<text transform="matrix(1 -1.073697e-03 1.073697e-03 1 220.3464 375.9905)" class="st2 st3">y</text>
			</g>
			<g class="st0">
				<defs>
					
						<rect id="SVGID_5_" x="47.6" y="302.2" transform="matrix(1 -1.073697e-03 1.073697e-03 1 -0.3743 0.1619)" width="205.9" height="93"/>
				</defs>
				<clipPath id="SVGID_6_">
					<use xlink:href="#SVGID_5_"  style="overflow:visible;"/>
				</clipPath>
				
					<rect x="53.8" y="321.8" transform="matrix(1 -1.073697e-03 1.073697e-03 1 -0.3832 7.758088e-02)" class="st4" width="36.5" height="70.4"/>
			</g>
			
				<rect x="60.9" y="317.7" transform="matrix(1 -1.073697e-03 1.073697e-03 1 -0.3788 8.520975e-02)" class="st5" width="36.5" height="70.4"/>
			
				<rect x="68" y="313.6" transform="matrix(1 -1.073697e-03 1.073697e-03 1 -0.3744 9.283862e-02)" class="st5" width="36.5" height="70.4"/>
			
				<rect x="75.1" y="309.5" transform="matrix(1 -1.073697e-03 1.073697e-03 1 -0.37 0.1005)" class="st5" width="36.5" height="70.4"/>
			<g class="st0">
				<defs>
					
						<rect id="SVGID_7_" x="47.6" y="302.2" transform="matrix(1 -1.073697e-03 1.073697e-03 1 -0.3743 0.1619)" width="205.9" height="93"/>
				</defs>
				<clipPath id="SVGID_8_">
					<use xlink:href="#SVGID_7_"  style="overflow:visible;"/>
				</clipPath>
				
					<rect x="82.3" y="305.3" transform="matrix(1 -1.073697e-03 1.073697e-03 1 -0.3655 0.1081)" class="st6" width="36.5" height="70.4"/>
			</g>
		</g>
	</g>
</g>
<g>
	<g>
		<polygon class="st7" points="456.6,395.6 456.6,215.6 694.1,215.6 708,224.6 708,395.6 		"/>
		<path d="M708,396.1H456.6c-0.3,0-0.5-0.2-0.5-0.5V215.6c0-0.3,0.2-0.5,0.5-0.5h237.5c0.1,0,0.2,0,0.3,0.1l13.9,9
			c0.1,0.1,0.2,0.2,0.2,0.4l0,171.1c0,0.1-0.1,0.3-0.1,0.4S708.1,396.1,708,396.1z M457.1,395.1h250.4l0-170.3l-13.5-8.8H457.1
			V395.1z"/>
	</g>
	<g>
		<polygon class="st7" points="689.9,223.4 694.1,215.6 694.1,215.5 694.1,215.6 708,224.6 		"/>
		<path d="M708,225.1C708,225.1,707.9,225.1,708,225.1l-18-1.2c-0.2,0-0.3-0.1-0.4-0.3s-0.1-0.3,0-0.5l4.1-7.8
			c0-0.1,0.1-0.2,0.2-0.3c0.2-0.1,0.4-0.1,0.5,0l13.9,9c0.2,0.1,0.3,0.4,0.2,0.6C708.4,224.9,708.2,225.1,708,225.1z M690.7,223
			l15.3,1l-11.8-7.7L690.7,223z"/>
	</g>
</g>
<g>
	<g>
		<polygon class="st7" points="355.8,59.5 390.6,489 112.4,511.6 94.4,491.4 61.3,83.3 		"/>
		<path d="M112.4,512.1c-0.1,0-0.3-0.1-0.4-0.2l-18-20.2c-0.1-0.1-0.1-0.2-0.1-0.3L60.8,83.3c0-0.1,0-0.3,0.1-0.4s0.2-0.2,0.3-0.2
			L355.8,59c0.3,0,0.5,0.2,0.5,0.5L391.1,489c0,0.1,0,0.3-0.1,0.4c-0.1,0.1-0.2,0.2-0.3,0.2L112.4,512.1
			C112.4,512.1,112.4,512.1,112.4,512.1z M94.9,491.2l17.7,19.9l277.5-22.5L355.4,60L61.8,83.8L94.9,491.2z"/>
	</g>
	<g>
		<polygon class="st7" points="115.7,492.4 112.4,511.6 112.4,511.6 112.4,511.6 94.4,491.4 		"/>
		<path d="M112.4,512.1c-0.1,0-0.2,0-0.3-0.1l-18-20.2c-0.1-0.2-0.2-0.4-0.1-0.5s0.3-0.3,0.5-0.3l21.3,1c0.1,0,0.3,0.1,0.4,0.2
			c0.1,0.1,0.1,0.3,0.1,0.4l-3.3,19.1c0,0.2-0.1,0.4-0.3,0.4C112.5,512.1,112.5,512.1,112.4,512.1z M95.6,492l16.5,18.6l3-17.6
			L95.6,492z"/>
	</g>
	<g>
		<g>
			<defs>
				
					<rect id="SVGID_9_" x="120.5" y="239.5" transform="matrix(0.9967 -8.176825e-02 8.176825e-02 0.9967 -22.6367 19.224)" width="205.9" height="93"/>
			</defs>
			<clipPath id="SVGID_10_">
				<use xlink:href="#SVGID_9_"  style="overflow:visible;"/>
			</clipPath>
			<g class="st8">
				<defs>
					
						<rect id="SVGID_11_" x="120.5" y="239.5" transform="matrix(0.9967 -8.176825e-02 8.176825e-02 0.9967 -22.6367 19.224)" width="205.9" height="93"/>
				</defs>
				<clipPath id="SVGID_12_">
					<use xlink:href="#SVGID_11_"  style="overflow:visible;"/>
				</clipPath>
				<g class="st9">
					<text transform="matrix(0.9967 -8.176824e-02 8.176824e-02 0.9967 197.5619 265.146)" class="st2 st3">The</text>
				</g>
			</g>
			<g class="st8">
				<text transform="matrix(0.9967 -8.176824e-02 8.176824e-02 0.9967 199.616 290.183)" class="st2 st3">New Old</text>
			</g>
			<g class="st8">
				<text transform="matrix(0.9967 -8.176824e-02 8.176824e-02 0.9967 201.671 315.2306)" class="st2 st3">Galle</text>
			</g>
			<g class="st8">
				<text transform="matrix(0.9967 -8.176824e-02 8.176824e-02 0.9967 279.7125 308.8279)" class="st2 st3">r</text>
			</g>
			<g class="st8">
				<text transform="matrix(0.9967 -8.176824e-02 8.176824e-02 0.9967 295.1353 307.5625)" class="st2 st3">y</text>
			</g>
			<g class="st8">
				<defs>
					
						<rect id="SVGID_13_" x="120.5" y="239.5" transform="matrix(0.9967 -8.176825e-02 8.176825e-02 0.9967 -22.6367 19.224)" width="205.9" height="93"/>
				</defs>
				<clipPath id="SVGID_14_">
					<use xlink:href="#SVGID_13_"  style="overflow:visible;"/>
				</clipPath>
				
					<rect x="127.6" y="265.4" transform="matrix(0.9967 -8.176825e-02 8.176825e-02 0.9967 -24.09 12.929)" class="st10" width="36.5" height="70.4"/>
			</g>
			
				<rect x="134.3" y="260.7" transform="matrix(0.9967 -8.176825e-02 8.176825e-02 0.9967 -23.6849 13.4654)" class="st11" width="36.5" height="70.4"/>
			
				<rect x="141.1" y="256.1" transform="matrix(0.9967 -8.176825e-02 8.176825e-02 0.9967 -23.2799 14.0018)" class="st11" width="36.5" height="70.4"/>
			
				<rect x="147.8" y="251.4" transform="matrix(0.9967 -8.176825e-02 8.176825e-02 0.9967 -22.8748 14.5383)" class="st11" width="36.5" height="70.4"/>
			<g class="st8">
				<defs>
					
						<rect id="SVGID_15_" x="120.5" y="239.5" transform="matrix(0.9967 -8.176825e-02 8.176825e-02 0.9967 -22.6367 19.224)" width="205.9" height="93"/>
				</defs>
				<clipPath id="SVGID_16_">
					<use xlink:href="#SVGID_15_"  style="overflow:visible;"/>
				</clipPath>
				
					<rect x="154.6" y="246.7" transform="matrix(0.9967 -8.176825e-02 8.176825e-02 0.9967 -22.4698 15.0747)" class="st12" width="36.5" height="70.4"/>
			</g>
		</g>
	</g>
	<g>
		<g>
			<defs>
				
					<rect id="SVGID_17_" x="541" y="212.5" transform="matrix(0.1927 -0.9813 0.9813 0.1927 173.1528 814.2501)" width="80.8" height="178.8"/>
			</defs>
			<clipPath id="SVGID_18_">
				<use xlink:href="#SVGID_17_"  style="overflow:visible;"/>
			</clipPath>
			<g class="st13">
				<defs>
					
						<rect id="SVGID_19_" x="541" y="212.5" transform="matrix(0.1927 -0.9813 0.9813 0.1927 173.1528 814.2501)" width="80.8" height="178.8"/>
				</defs>
				<clipPath id="SVGID_20_">
					<use xlink:href="#SVGID_19_"  style="overflow:visible;"/>
				</clipPath>
				<g class="st14">
					<text transform="matrix(0.9813 0.1927 -0.1927 0.9813 564.7466 278.366)" class="st2 st15">The</text>
				</g>
			</g>
			<g class="st13">
				<text transform="matrix(0.9813 0.1927 -0.1927 0.9813 560.5422 299.7799)" class="st2 st15">New Old</text>
			</g>
			<g class="st13">
				<text transform="matrix(0.9813 0.1927 -0.1927 0.9813 556.3362 321.202)" class="st2 st15">Galle</text>
			</g>
			<g class="st13">
				<text transform="matrix(0.9813 0.1927 -0.1927 0.9813 623.0834 334.307)" class="st2 st15">r</text>
			</g>
			<g class="st13">
				<text transform="matrix(0.9813 0.1927 -0.1927 0.9813 636.2739 336.8968)" class="st2 st15">y</text>
			</g>
			<g class="st13">
				<defs>
					
						<rect id="SVGID_21_" x="541" y="212.5" transform="matrix(0.1927 -0.9813 0.9813 0.1927 173.1528 814.2501)" width="80.8" height="178.8"/>
				</defs>
				<clipPath id="SVGID_22_">
					<use xlink:href="#SVGID_21_"  style="overflow:visible;"/>
				</clipPath>
				
					<rect x="482.5" y="279.9" transform="matrix(0.1927 -0.9813 0.9813 0.1927 124.0424 742.262)" class="st16" width="61.1" height="31.7"/>
			</g>
			
				<rect x="489.3" y="277.6" transform="matrix(0.1927 -0.9813 0.9813 0.1927 131.7618 747.0182)" class="st17" width="61.1" height="31.7"/>
			
				<rect x="496" y="275.3" transform="matrix(0.1927 -0.9813 0.9813 0.1927 139.4802 751.775)" class="st17" width="61.1" height="31.7"/>
			
				<rect x="502.8" y="273" transform="matrix(0.1927 -0.9813 0.9813 0.1927 147.1991 756.5312)" class="st17" width="61.1" height="31.7"/>
			<g class="st13">
				<defs>
					
						<rect id="SVGID_23_" x="541" y="212.5" transform="matrix(0.1927 -0.9813 0.9813 0.1927 173.1528 814.2501)" width="80.8" height="178.8"/>
				</defs>
				<clipPath id="SVGID_24_">
					<use xlink:href="#SVGID_23_"  style="overflow:visible;"/>
				</clipPath>
				
					<rect x="509.5" y="270.7" transform="matrix(0.1927 -0.9813 0.9813 0.1927 154.9178 761.2881)" class="st18" width="61.1" height="31.7"/>
			</g>
		</g>
	</g>
</g>
<g>
	
		<ellipse transform="matrix(0.9386 -0.3451 0.3451 0.9386 -1.1541 128.3338)" class="st7" cx="359.9" cy="67.4" rx="71.6" ry="60.9"/>
	<path d="M352.6,130.1c-27.3,0-51.7-14.2-60.4-37.8c-11.7-31.8,9.2-68.8,46.5-82.5c18.1-6.6,37.3-6.9,54-0.8
		c16.8,6.2,29.2,18,34.8,33.4l0,0c5.7,15.4,3.9,32.5-4.9,48c-8.8,15.6-23.6,27.8-41.7,34.4C371.6,128.5,361.9,130.1,352.6,130.1z
		 M367.3,5.6c-9.4,0-19,1.7-28.3,5.1c-36.8,13.5-57.4,50-45.9,81.2c11.5,31.2,50.8,45.6,87.6,32.1c17.9-6.6,32.5-18.6,41.1-34
		c8.7-15.3,10.4-32.1,4.8-47.2l0,0C421.1,27.7,409,16.1,392.4,10C384.5,7.1,376,5.6,367.3,5.6z"/>
</g>
<g>
	<rect x="428.6" y="536.3" class="st7" width="109.5" height="74.1"/>
	<path d="M538.1,610.9H428.6c-0.3,0-0.5-0.2-0.5-0.5v-74.1c0-0.3,0.2-0.5,0.5-0.5h109.5c0.3,0,0.5,0.2,0.5,0.5v74.1
		C538.6,610.6,538.4,610.9,538.1,610.9z M429.1,609.9h108.5v-73.1H429.1V609.9z"/>
</g>
<g>
	<g>
		<path d="M309.2,78.3c1.9-8.8,5.3-16.4,10.7-23.7c-2.3-0.3-4.6-0.6-6.9-0.9c2.1,14,5.6,27.5,10.6,40.7c1.2,3.1,5,3.8,6.9,0.9
			c7.7-11.6,15.5-23.3,23.2-34.9c-2.2,0-4.4,0-6.5,0c2.6,4.7,4.7,9.5,6.4,14.6c1,2.9,5.4,4,6.9,0.9c1-1.9,6.2-15.4,7.9-15.6
			c1-0.2,7.7,5.3,9.3,5.9c5.1,1.7,9.5,1.3,13.9-1.7c4-2.7,0.2-9.3-3.8-6.5c-9.8,6.7-14-8.2-22.3-5c-6,2.3-9,14.1-11.6,19.2
			c2.3,0.3,4.6,0.6,6.9,0.9c-1.9-5.8-4.2-11.1-7.2-16.4c-1.4-2.6-5-2.3-6.5,0c-7.7,11.6-15.5,23.3-23.2,34.9
			c2.3,0.3,4.6,0.6,6.9,0.9c-5.1-13.2-8.6-26.7-10.6-40.7c-0.5-3.6-5.3-3.2-6.9-0.9c-5.8,7.8-9.4,16-11.4,25.5
			C300.9,81.1,308.2,83.1,309.2,78.3L309.2,78.3z"/>
	</g>
</g>
<g>
	<g>
		<path d="M486.5,568.6c4.9,0,4.9-7.6,0-7.6C481.7,561,481.7,568.6,486.5,568.6L486.5,568.6z"/>
	</g>
</g>
<g>
	<g>
		<path d="M457.1,567.9c4.9,0,4.9-7.6,0-7.6C452.3,560.4,452.3,567.9,457.1,567.9L457.1,567.9z"/>
	</g>
</g>
<g>
	<g>
		<path d="M460.6,596.7c4.9,0,4.9-7.6,0-7.6C455.7,589.1,455.7,596.7,460.6,596.7L460.6,596.7z"/>
	</g>
</g>
<g>
	<g>
		<path d="M477.6,587.1c12.2,1,24.9-4.8,26.1-18.2c0.4-4.9-7.1-4.8-7.6,0c-0.8,9.1-11.1,11.2-18.5,10.6
			C472.7,579.1,472.8,586.7,477.6,587.1L477.6,587.1z"/>
	</g>
</g>
<g>
	<g>
		<path d="M507.7,588.5c2.5,0,5,0,7.5,0c4.9,0,4.9-7.6,0-7.6c-2.5,0-5,0-7.5,0C502.9,580.9,502.9,588.5,507.7,588.5L507.7,588.5z"/>
	</g>
</g>
<g>
	<g>
		<path d="M503.9,552.9c7.9,7.6,15.8,15.1,23.8,22.7c3.5,3.4,8.9-2,5.4-5.4c-7.9-7.6-15.8-15.1-23.8-22.7
			C505.8,544.2,500.4,549.5,503.9,552.9L503.9,552.9z"/>
	</g>
</g>
</svg>
